{
  "source": "C:\\Users\\Peter\\Desktop\\stuff\\MIUN\\quantitative_research\\video_compression\\videos\\BVI-HD\\BVI-HD_CDVL_videos\\ORIG\\Bookcase_1920x1080_60fps.mp4",
  "output": "C:\\Users\\Peter\\Desktop\\stuff\\MIUN\\quantitative_research\\video_compression\\compressed_videos\\BVI-HD\\hevc\\1\\Bookcase_1920x1080_60fps_hevc.mp4",
  "codec": "hevc",
  "ok": "Input #0, mov,mp4,m4a,3gp,3g2,mj2, from 'C:\\Users\\Peter\\Desktop\\stuff\\MIUN\\quantitative_research\\video_compression\\videos\\BVI-HD\\BVI-HD_CDVL_videos\\ORIG\\Bookcase_1920x1080_60fps.mp4':\n  Metadata:\n    major_brand     : isom\n    minor_version   : 512\n    compatible_brands: isomiso2avc1mp41\n    encoder         : Lavf54.28.101\n  Duration: 00:00:05.00, start: 0.000000, bitrate: 336321 kb/s\n  Stream #0:0[0x1](und): Video: h264 (High 4:4:4 Predictive) (avc1 / 0x31637661), yuv420p(progressive), 1920x1080, 336316 kb/s, 60 fps, 60 tbr, 60 tbn (default)\n    Metadata:\n      handler_name    : VideoHandler\n      vendor_id       : [0][0][0][0]\n[out#0/mp4 @ 0000018cb5ddac40] Codec AVOption b:a (set bitrate (in bits/s)) has not been used for any stream. The most likely reason is either wrong type (e.g. a video option with no video streams) or that it is a private option of some decoder which was not actually used for any stream.\nStream mapping:\n  Stream #0:0 -> #0:0 (h264 (native) -> hevc (libx265))\nPress [q] to stop, [?] for help\n[libx265 @ 0000018cb6490580] Unknown option: \"aq-mode.\nx265 [info]: HEVC encoder version 4.1+190-8f11c33ac\nx265 [info]: build info [Windows][GCC 15.1.0][64 bit] 10bit\nx265 [info]: using cpu capabilities: MMX2 SSE2Fast LZCNT SSSE3 SSE4.2 AVX FMA3 BMI2 AVX2\nx265 [info]: Main 10 profile, Level-4.1 (Main tier)\nx265 [info]: Thread pool created using 12 threads\nx265 [info]: Slices                              : 1\nx265 [info]: frame threads / pool features       : 3 / wpp(17 rows)\nx265 [info]: Coding QT: max CU size, min CU size : 64 / 8\nx265 [info]: Residual QT: max TU size, max depth : 32 / 1 inter / 1 intra\nx265 [info]: ME / range / subpel / merge         : star / 57 / 3 / 3\nx265 [info]: Keyframe min / max / scenecut / bias  : 25 / 250 / 40 / 5.00 \nx265 [info]: Lookahead / bframes / badapt        : 25 / 4 / 2\nx265 [info]: b-pyramid / weightp / weightb       : 1 / 1 / 0\nx265 [info]: References / ref-limit  cu / depth  : 4 / on / on\nx265 [info]: AQ: mode / str / qg-size / cu-tree  : 2 / 1.0 / 32 / 1\nx265 [info]: Rate Control / qCompress            : ABR-1000 kbps / 0.60\nx265 [info]: VBV/HRD buffer / max-rate / init    : 1000 / 1000 / 0.750\nx265 [info]: tools: rect limit-modes rd=4 psy-rd=2.00 rdoq=2 psy-rdoq=1.00\nx265 [info]: tools: rskip mode=1 signhide tmvp strong-intra-smoothing lslices=4\nx265 [info]: tools: deblock sao dhdr10-info\nOutput #0, mp4, to 'C:\\Users\\Peter\\Desktop\\stuff\\MIUN\\quantitative_research\\video_compression\\compressed_videos\\BVI-HD\\hevc\\1\\Bookcase_1920x1080_60fps_hevc.mp4':\n  Metadata:\n    major_brand     : isom\n    minor_version   : 512\n    compatible_brands: isomiso2avc1mp41\n    encoder         : Lavf62.3.100\n  Stream #0:0(und): Video: hevc (hev1 / 0x31766568), yuv420p10le(tv, progressive), 1920x1080, q=2-31, 1000 kb/s, 60 fps, 15360 tbn (default)\n    Metadata:\n      encoder         : Lavc62.11.100 libx265\n      handler_name    : VideoHandler\n      vendor_id       : [0][0][0][0]\n    Side data:\n      cpb: bitrate max/min/avg: 1000000/0/1000000 buffer size: 1000000 vbv_delay: N/A\nframe=    0 fps=0.0 q=0.0 size=       0KiB time=N/A bitrate=N/A speed=N/A elapsed=0:00:00.51    \nframe=    0 fps=0.0 q=0.0 size=       0KiB time=N/A bitrate=N/A speed=N/A elapsed=0:00:01.04    \nframe=    0 fps=0.0 q=0.0 size=       0KiB time=N/A bitrate=N/A speed=N/A elapsed=0:00:01.56    \nframe=    0 fps=0.0 q=0.0 size=       0KiB time=N/A bitrate=N/A speed=N/A elapsed=0:00:02.07    \nframe=    0 fps=0.0 q=0.0 size=       0KiB time=N/A bitrate=N/A speed=N/A elapsed=0:00:02.59    \nframe=    0 fps=0.0 q=0.0 size=       0KiB time=N/A bitrate=N/A speed=N/A elapsed=0:00:03.12    \nframe=    1 fps=0.3 q=45.1 size=       0KiB time=-00:00:00.01 bitrate=N/A speed=N/A elapsed=0:00:03.65    \nframe=    3 fps=0.7 q=51.0 size=       0KiB time=00:00:00.01 bitrate=  21.1kbits/s speed=0.004x elapsed=0:00:04.16    \nframe=    4 fps=0.9 q=51.0 size=       0KiB time=00:00:00.03 bitrate=  10.6kbits/s speed=0.00711x elapsed=0:00:04.68    \nframe=    6 fps=1.2 q=44.8 size=       0KiB time=00:00:00.06 bitrate=   5.3kbits/s speed=0.0128x elapsed=0:00:05.19    \nframe=    7 fps=1.2 q=47.0 size=       0KiB time=00:00:00.08 bitrate=   4.2kbits/s speed=0.0146x elapsed=0:00:05.71    \nframe=    8 fps=1.3 q=45.4 size=       0KiB time=00:00:00.10 bitrate=   3.5kbits/s speed=0.016x elapsed=0:00:06.23    \nframe=    8 fps=1.2 q=45.4 size=       0KiB time=00:00:00.10 bitrate=   3.5kbits/s speed=0.0148x elapsed=0:00:06.73    \nframe=    9 fps=1.2 q=45.2 size=       0KiB time=00:00:00.11 bitrate=   3.0kbits/s speed=0.0161x elapsed=0:00:07.25    \nframe=   12 fps=1.5 q=46.0 size=       0KiB time=00:00:00.16 bitrate=   2.1kbits/s speed=0.0214x elapsed=0:00:07.79    \nframe=   13 fps=1.6 q=45.9 size=       0KiB time=00:00:00.18 bitrate=   1.9kbits/s speed=0.0221x elapsed=0:00:08.30    \nframe=   15 fps=1.7 q=47.0 size=       0KiB time=00:00:00.21 bitrate=   1.6kbits/s speed=0.0245x elapsed=0:00:08.85    \nframe=   17 fps=1.8 q=46.9 size=       0KiB time=00:00:00.25 bitrate=   1.4kbits/s speed=0.0266x elapsed=0:00:09.38    \nframe=   18 fps=1.8 q=47.0 size=       0KiB time=00:00:00.26 bitrate=   1.3kbits/s speed=0.0269x elapsed=0:00:09.89    \nframe=   19 fps=1.8 q=45.9 size=       0KiB time=00:00:00.28 bitrate=   1.2kbits/s speed=0.0272x elapsed=0:00:10.41    \nframe=   20 fps=1.8 q=45.0 size=       0KiB time=00:00:00.30 bitrate=   1.2kbits/s speed=0.0274x elapsed=0:00:10.94    \nframe=   21 fps=1.8 q=39.2 size=       0KiB time=00:00:00.31 bitrate=   1.1kbits/s speed=0.0276x elapsed=0:00:11.45    \nframe=   22 fps=1.8 q=44.9 size=       0KiB time=00:00:00.33 bitrate=   1.1kbits/s speed=0.0278x elapsed=0:00:11.97    \nframe=   23 fps=1.8 q=45.0 size=       0KiB time=00:00:00.35 bitrate=   1.0kbits/s speed=0.028x elapsed=0:00:12.49    \nframe=   24 fps=1.8 q=38.9 size=       0KiB time=00:00:00.36 bitrate=   1.0kbits/s speed=0.0282x elapsed=0:00:13.00    \nframe=   25 fps=1.8 q=44.7 size=       0KiB time=00:00:00.38 bitrate=   0.9kbits/s speed=0.0284x elapsed=0:00:13.51    \nframe=   26 fps=1.9 q=45.0 size=       0KiB time=00:00:00.40 bitrate=   0.9kbits/s speed=0.0285x elapsed=0:00:14.04    \nframe=   27 fps=1.9 q=38.8 size=       0KiB time=00:00:00.41 bitrate=   0.8kbits/s speed=0.0286x elapsed=0:00:14.56    \nframe=   28 fps=1.9 q=41.3 size=       0KiB time=00:00:00.43 bitrate=   0.8kbits/s speed=0.0287x elapsed=0:00:15.08    \nframe=   29 fps=1.9 q=45.0 size=       0KiB time=00:00:00.45 bitrate=   0.8kbits/s speed=0.0289x elapsed=0:00:15.59    \nframe=   30 fps=1.9 q=38.5 size=       0KiB time=00:00:00.46 bitrate=   0.8kbits/s speed=0.0289x elapsed=0:00:16.12    \nframe=   31 fps=1.9 q=44.0 size=       0KiB time=00:00:00.48 bitrate=   0.7kbits/s speed=0.0291x elapsed=0:00:16.63    \nframe=   32 fps=1.9 q=37.7 size=       0KiB time=00:00:00.50 bitrate=   0.7kbits/s speed=0.0292x elapsed=0:00:17.14    \nframe=   34 fps=1.9 q=37.3 size=       0KiB time=00:00:00.53 bitrate=   0.7kbits/s speed=0.0302x elapsed=0:00:17.66    \nframe=   35 fps=1.9 q=42.7 size=       0KiB time=00:00:00.55 bitrate=   0.6kbits/s speed=0.0303x elapsed=0:00:18.17    \nframe=   36 fps=1.9 q=43.0 size=       0KiB time=00:00:00.56 bitrate=   0.6kbits/s speed=0.0303x elapsed=0:00:18.69    \nframe=   36 fps=1.9 q=43.0 size=       0KiB time=00:00:00.56 bitrate=   0.6kbits/s speed=0.0295x elapsed=0:00:19.21    \nframe=   38 fps=1.9 q=37.1 size=       0KiB time=00:00:00.60 bitrate=   0.6kbits/s speed=0.0304x elapsed=0:00:19.72    \nframe=   39 fps=1.9 q=41.7 size=       0KiB time=00:00:00.61 bitrate=   0.6kbits/s speed=0.0305x elapsed=0:00:20.24    \nframe=   40 fps=1.9 q=41.9 size=       0KiB time=00:00:00.63 bitrate=   0.6kbits/s speed=0.0305x elapsed=0:00:20.75    \nframe=   41 fps=1.9 q=41.9 size=       0KiB time=00:00:00.65 bitrate=   0.5kbits/s speed=0.0306x elapsed=0:00:21.27    \nframe=   42 fps=1.9 q=42.0 size=       0KiB time=00:00:00.66 bitrate=   0.5kbits/s speed=0.0306x elapsed=0:00:21.78    \nframe=   44 fps=2.0 q=41.7 size=       0KiB time=00:00:00.70 bitrate=   0.5kbits/s speed=0.0314x elapsed=0:00:22.30    \nframe=   44 fps=1.9 q=41.7 size=       0KiB time=00:00:00.70 bitrate=   0.5kbits/s speed=0.0307x elapsed=0:00:22.82    \nframe=   46 fps=2.0 q=40.7 size=       0KiB time=00:00:00.73 bitrate=   0.5kbits/s speed=0.0314x elapsed=0:00:23.33    \nframe=   47 fps=2.0 q=36.1 size=       0KiB time=00:00:00.75 bitrate=   0.5kbits/s speed=0.0314x elapsed=0:00:23.85    \nframe=   48 fps=2.0 q=40.7 size=       0KiB time=00:00:00.76 bitrate=   0.5kbits/s speed=0.0315x elapsed=0:00:24.37    \nframe=   50 fps=2.0 q=40.9 size=       0KiB time=00:00:00.80 bitrate=   0.4kbits/s speed=0.0322x elapsed=0:00:24.88    \nframe=   52 fps=2.0 q=40.9 size=       0KiB time=00:00:00.83 bitrate=   0.4kbits/s speed=0.0328x elapsed=0:00:25.40    \nframe=   53 fps=2.0 q=40.7 size=       0KiB time=00:00:00.85 bitrate=   0.4kbits/s speed=0.0328x elapsed=0:00:25.92    \nframe=   53 fps=2.0 q=40.7 size=       0KiB time=00:00:00.85 bitrate=   0.4kbits/s speed=0.0321x elapsed=0:00:26.44    \nframe=   54 fps=2.0 q=40.9 size=       0KiB time=00:00:00.86 bitrate=   0.4kbits/s speed=0.0321x elapsed=0:00:26.96    \nframe=   55 fps=2.0 q=40.7 size=       0KiB time=00:00:00.88 bitrate=   0.4kbits/s speed=0.0321x elapsed=0:00:27.48    \nframe=   56 fps=2.0 q=36.3 size=       0KiB time=00:00:00.90 bitrate=   0.4kbits/s speed=0.0321x elapsed=0:00:27.99    \nframe=   57 fps=2.0 q=40.5 size=       0KiB time=00:00:00.91 bitrate=   0.4kbits/s speed=0.0321x elapsed=0:00:28.51    \nframe=   58 fps=2.0 q=40.8 size=       0KiB time=00:00:00.93 bitrate=   0.4kbits/s speed=0.0322x elapsed=0:00:29.02    \nframe=   59 fps=2.0 q=41.0 size=       0KiB time=00:00:00.95 bitrate=   0.4kbits/s speed=0.0322x elapsed=0:00:29.53    \nframe=   60 fps=2.0 q=36.5 size=       0KiB time=00:00:00.96 bitrate=   0.4kbits/s speed=0.0322x elapsed=0:00:30.06    \nframe=   61 fps=2.0 q=40.6 size=       0KiB time=00:00:00.98 bitrate=   0.4kbits/s speed=0.0322x elapsed=0:00:30.56    \nframe=   63 fps=2.0 q=41.7 size=       0KiB time=00:00:01.01 bitrate=   0.3kbits/s speed=0.0327x elapsed=0:00:31.09    \nframe=   64 fps=2.0 q=36.7 size=       0KiB time=00:00:01.03 bitrate=   0.3kbits/s speed=0.0327x elapsed=0:00:31.61    \nframe=   66 fps=2.1 q=42.0 size=       0KiB time=00:00:01.06 bitrate=   0.3kbits/s speed=0.0332x elapsed=0:00:32.11    \nframe=   66 fps=2.0 q=42.0 size=       0KiB time=00:00:01.06 bitrate=   0.3kbits/s speed=0.0327x elapsed=0:00:32.64    \nframe=   68 fps=2.1 q=40.9 size=       0KiB time=00:00:01.10 bitrate=   0.3kbits/s speed=0.0332x elapsed=0:00:33.16    \nframe=   70 fps=2.1 q=40.7 size=       0KiB time=00:00:01.13 bitrate=   0.3kbits/s speed=0.0336x elapsed=0:00:33.68    \nframe=   70 fps=2.0 q=40.7 size=       0KiB time=00:00:01.13 bitrate=   0.3kbits/s speed=0.0331x elapsed=0:00:34.20    \nframe=   72 fps=2.1 q=41.0 size=       0KiB time=00:00:01.16 bitrate=   0.3kbits/s speed=0.0336x elapsed=0:00:34.70    \nframe=   73 fps=2.1 q=36.1 size=       0KiB time=00:00:01.18 bitrate=   0.3kbits/s speed=0.0336x elapsed=0:00:35.22    \nframe=   74 fps=2.1 q=39.0 size=       0KiB time=00:00:01.20 bitrate=   0.3kbits/s speed=0.0336x elapsed=0:00:35.74    \nframe=   75 fps=2.1 q=42.0 size=       0KiB time=00:00:01.21 bitrate=   0.3kbits/s speed=0.0336x elapsed=0:00:36.26    \nframe=   75 fps=2.0 q=42.0 size=       0KiB time=00:00:01.21 bitrate=   0.3kbits/s speed=0.0331x elapsed=0:00:36.79    \nframe=   76 fps=2.0 q=42.0 size=       0KiB time=00:00:01.23 bitrate=   0.3kbits/s speed=0.0331x elapsed=0:00:37.31    \nframe=   77 fps=2.0 q=42.0 size=       0KiB time=00:00:01.25 bitrate=   0.3kbits/s speed=0.033x elapsed=0:00:37.83    \nframe=   79 fps=2.1 q=40.9 size=       0KiB time=00:00:01.28 bitrate=   0.3kbits/s speed=0.0335x elapsed=0:00:38.35    \nframe=   80 fps=2.1 q=42.1 size=       0KiB time=00:00:01.30 bitrate=   0.3kbits/s speed=0.0334x elapsed=0:00:38.86    \nframe=   82 fps=2.1 q=43.0 size=       0KiB time=00:00:01.33 bitrate=   0.3kbits/s speed=0.0339x elapsed=0:00:39.38    \nframe=   83 fps=2.1 q=36.1 size=       0KiB time=00:00:01.35 bitrate=   0.3kbits/s speed=0.0338x elapsed=0:00:39.90    \nframe=   85 fps=2.1 q=43.0 size=       0KiB time=00:00:01.38 bitrate=   0.3kbits/s speed=0.0342x elapsed=0:00:40.41    \nframe=   85 fps=2.1 q=43.0 size=       0KiB time=00:00:01.38 bitrate=   0.3kbits/s speed=0.0338x elapsed=0:00:40.93    \nframe=   86 fps=2.1 q=42.0 size=       0KiB time=00:00:01.40 bitrate=   0.3kbits/s speed=0.0338x elapsed=0:00:41.45    \nframe=   88 fps=2.1 q=36.1 size=       0KiB time=00:00:01.43 bitrate=   0.2kbits/s speed=0.0341x elapsed=0:00:41.97    \nframe=   88 fps=2.1 q=36.1 size=       0KiB time=00:00:01.43 bitrate=   0.2kbits/s speed=0.0337x elapsed=0:00:42.49    \nframe=   90 fps=2.1 q=43.0 size=       0KiB time=00:00:01.46 bitrate=   0.2kbits/s speed=0.0341x elapsed=0:00:43.01    \nframe=   91 fps=2.1 q=42.0 size=       0KiB time=00:00:01.48 bitrate=   0.2kbits/s speed=0.0341x elapsed=0:00:43.52    \nframe=   92 fps=2.1 q=43.0 size=       0KiB time=00:00:01.50 bitrate=   0.2kbits/s speed=0.0341x elapsed=0:00:44.04    \nframe=   94 fps=2.1 q=41.0 size=       0KiB time=00:00:01.53 bitrate=   0.2kbits/s speed=0.0344x elapsed=0:00:44.55    \nframe=   95 fps=2.1 q=43.0 size=       0KiB time=00:00:01.55 bitrate=   0.2kbits/s speed=0.0344x elapsed=0:00:45.07    \nframe=   96 fps=2.1 q=35.1 size=       0KiB time=00:00:01.56 bitrate=   0.2kbits/s speed=0.0344x elapsed=0:00:45.59    \nframe=   96 fps=2.1 q=35.1 size=       0KiB time=00:00:01.56 bitrate=   0.2kbits/s speed=0.034x elapsed=0:00:46.09    \nframe=   98 fps=2.1 q=42.0 size=       0KiB time=00:00:01.60 bitrate=   0.2kbits/s speed=0.0343x elapsed=0:00:46.62    \nframe=   98 fps=2.1 q=42.0 size=       0KiB time=00:00:01.60 bitrate=   0.2kbits/s speed=0.0339x elapsed=0:00:47.14    \nframe=  100 fps=2.1 q=40.0 size=       0KiB time=00:00:01.63 bitrate=   0.2kbits/s speed=0.0343x elapsed=0:00:47.66    \nframe=  102 fps=2.1 q=37.7 size=       0KiB time=00:00:01.66 bitrate=   0.2kbits/s speed=0.0346x elapsed=0:00:48.18    \nframe=  103 fps=2.1 q=41.0 size=       0KiB time=00:00:01.68 bitrate=   0.2kbits/s speed=0.0346x elapsed=0:00:48.70    \nframe=  103 fps=2.1 q=41.0 size=       0KiB time=00:00:01.68 bitrate=   0.2kbits/s speed=0.0342x elapsed=0:00:49.20    \nframe=  104 fps=2.1 q=41.0 size=       0KiB time=00:00:01.70 bitrate=   0.2kbits/s speed=0.0342x elapsed=0:00:49.73    \nframe=  105 fps=2.1 q=41.0 size=       0KiB time=00:00:01.71 bitrate=   0.2kbits/s speed=0.0342x elapsed=0:00:50.25    \nframe=  106 fps=2.1 q=35.6 size=       0KiB time=00:00:01.73 bitrate=   0.2kbits/s speed=0.0342x elapsed=0:00:50.75    \nframe=  108 fps=2.1 q=42.0 size=       0KiB time=00:00:01.76 bitrate=   0.2kbits/s speed=0.0345x elapsed=0:00:51.27    \nframe=  109 fps=2.1 q=42.0 size=       0KiB time=00:00:01.78 bitrate=   0.2kbits/s speed=0.0344x elapsed=0:00:51.80    \nframe=  109 fps=2.1 q=42.0 size=       0KiB time=00:00:01.78 bitrate=   0.2kbits/s speed=0.0341x elapsed=0:00:52.31    \nframe=  111 fps=2.1 q=35.7 size=       0KiB time=00:00:01.81 bitrate=   0.2kbits/s speed=0.0344x elapsed=0:00:52.84    \nframe=  111 fps=2.1 q=35.7 size=       0KiB time=00:00:01.81 bitrate=   0.2kbits/s speed=0.0341x elapsed=0:00:53.34    \nframe=  113 fps=2.1 q=42.9 size=       0KiB time=00:00:01.85 bitrate=   0.2kbits/s speed=0.0343x elapsed=0:00:53.87    \nframe=  114 fps=2.1 q=43.0 size=       0KiB time=00:00:01.86 bitrate=   0.2kbits/s speed=0.0343x elapsed=0:00:54.37    \nframe=  115 fps=2.1 q=43.0 size=       0KiB time=00:00:01.88 bitrate=   0.2kbits/s speed=0.0343x elapsed=0:00:54.89    \nframe=  116 fps=2.1 q=35.7 size=       0KiB time=00:00:01.90 bitrate=   0.2kbits/s speed=0.0343x elapsed=0:00:55.42    \nframe=  117 fps=2.1 q=42.0 size=       0KiB time=00:00:01.91 bitrate=   0.2kbits/s speed=0.0343x elapsed=0:00:55.94    \nframe=  118 fps=2.1 q=43.0 size=       0KiB time=00:00:01.93 bitrate=   0.2kbits/s speed=0.0342x elapsed=0:00:56.46    \nframe=  119 fps=2.1 q=42.0 size=       0KiB time=00:00:01.95 bitrate=   0.2kbits/s speed=0.0342x elapsed=0:00:56.98    \nframe=  121 fps=2.1 q=35.2 size=       0KiB time=00:00:01.98 bitrate=   0.2kbits/s speed=0.0345x elapsed=0:00:57.49    \nframe=  123 fps=2.1 q=43.0 size=       0KiB time=00:00:02.01 bitrate=   0.2kbits/s speed=0.0348x elapsed=0:00:58.01    \nframe=  125 fps=2.1 q=41.0 size=       0KiB time=00:00:02.05 bitrate=   0.2kbits/s speed=0.035x elapsed=0:00:58.53    \nframe=  127 fps=2.2 q=41.0 size=       0KiB time=00:00:02.08 bitrate=   0.2kbits/s speed=0.0353x elapsed=0:00:59.03    \nframe=  128 fps=2.1 q=41.0 size=       0KiB time=00:00:02.10 bitrate=   0.2kbits/s speed=0.0353x elapsed=0:00:59.55    \nframe=  130 fps=2.2 q=40.0 size=       0KiB time=00:00:02.13 bitrate=   0.2kbits/s speed=0.0355x elapsed=0:01:00.07    \nframe=  130 fps=2.1 q=40.0 size=       0KiB time=00:00:02.13 bitrate=   0.2kbits/s speed=0.0352x elapsed=0:01:00.60    \nframe=  131 fps=2.1 q=33.7 size=       0KiB time=00:00:02.15 bitrate=   0.2kbits/s speed=0.0352x elapsed=0:01:01.11    \nframe=  131 fps=2.1 q=33.7 size=       0KiB time=00:00:02.15 bitrate=   0.2kbits/s speed=0.0349x elapsed=0:01:01.63    \nframe=  133 fps=2.1 q=40.0 size=       0KiB time=00:00:02.18 bitrate=   0.2kbits/s speed=0.0351x elapsed=0:01:02.15    \nframe=  133 fps=2.1 q=40.0 size=       0KiB time=00:00:02.18 bitrate=   0.2kbits/s speed=0.0348x elapsed=0:01:02.65    \nframe=  135 fps=2.1 q=39.0 size=       0KiB time=00:00:02.21 bitrate=   0.2kbits/s speed=0.0351x elapsed=0:01:03.17    \nframe=  137 fps=2.2 q=38.4 size=       0KiB time=00:00:02.25 bitrate=   0.2kbits/s speed=0.0353x elapsed=0:01:03.70    \nframe=  137 fps=2.1 q=38.4 size=       0KiB time=00:00:02.25 bitrate=   0.2kbits/s speed=0.035x elapsed=0:01:04.20    \nframe=  139 fps=2.1 q=40.0 size=       0KiB time=00:00:02.28 bitrate=   0.2kbits/s speed=0.0353x elapsed=0:01:04.73    \nframe=  140 fps=2.1 q=35.2 size=     256KiB time=00:00:02.30 bitrate= 912.0kbits/s speed=0.0352x elapsed=0:01:05.25    \nframe=  140 fps=2.1 q=35.2 size=     256KiB time=00:00:02.30 bitrate= 912.0kbits/s speed=0.035x elapsed=0:01:05.75    \nframe=  142 fps=2.1 q=40.0 size=     256KiB time=00:00:02.33 bitrate= 898.9kbits/s speed=0.0352x elapsed=0:01:06.28    \nframe=  142 fps=2.1 q=40.0 size=     256KiB time=00:00:02.33 bitrate= 898.9kbits/s speed=0.0349x elapsed=0:01:06.78    \nframe=  144 fps=2.1 q=41.0 size=     256KiB time=00:00:02.36 bitrate= 886.3kbits/s speed=0.0352x elapsed=0:01:07.30    \nframe=  146 fps=2.2 q=40.0 size=     256KiB time=00:00:02.40 bitrate= 874.0kbits/s speed=0.0354x elapsed=0:01:07.81    \nframe=  147 fps=2.2 q=40.8 size=     256KiB time=00:00:02.41 bitrate= 867.9kbits/s speed=0.0354x elapsed=0:01:08.33    \nframe=  148 fps=2.1 q=40.0 size=     256KiB time=00:00:02.43 bitrate= 862.0kbits/s speed=0.0353x elapsed=0:01:08.85    \nframe=  150 fps=2.2 q=35.3 size=     256KiB time=00:00:02.46 bitrate= 850.3kbits/s speed=0.0356x elapsed=0:01:09.37    \nframe=  150 fps=2.1 q=35.3 size=     256KiB time=00:00:02.46 bitrate= 850.3kbits/s speed=0.0353x elapsed=0:01:09.88    \nframe=  152 fps=2.2 q=41.0 size=     256KiB time=00:00:02.50 bitrate= 839.0kbits/s speed=0.0355x elapsed=0:01:10.40    \nframe=  153 fps=2.2 q=40.9 size=     256KiB time=00:00:02.51 bitrate= 833.4kbits/s speed=0.0355x elapsed=0:01:10.92    \nframe=  153 fps=2.1 q=40.9 size=     256KiB time=00:00:02.51 bitrate= 833.4kbits/s speed=0.0352x elapsed=0:01:11.44    \nframe=  154 fps=2.1 q=42.0 size=     256KiB time=00:00:02.53 bitrate= 828.0kbits/s speed=0.0352x elapsed=0:01:11.98    \nframe=  156 fps=2.2 q=41.0 size=     256KiB time=00:00:02.56 bitrate= 817.2kbits/s speed=0.0354x elapsed=0:01:12.49    \nframe=  157 fps=2.2 q=42.0 size=     256KiB time=00:00:02.58 bitrate= 811.9kbits/s speed=0.0354x elapsed=0:01:13.01    \nframe=  158 fps=2.1 q=42.0 size=     256KiB time=00:00:02.60 bitrate= 806.7kbits/s speed=0.0354x elapsed=0:01:13.51    \nframe=  159 fps=2.1 q=43.0 size=     256KiB time=00:00:02.61 bitrate= 801.6kbits/s speed=0.0353x elapsed=0:01:14.03    \nframe=  160 fps=2.1 q=36.7 size=     256KiB time=00:00:02.63 bitrate= 796.5kbits/s speed=0.0353x elapsed=0:01:14.56    \nframe=  161 fps=2.1 q=41.5 size=     256KiB time=00:00:02.65 bitrate= 791.5kbits/s speed=0.0353x elapsed=0:01:15.07    \nframe=  161 fps=2.1 q=41.5 size=     256KiB time=00:00:02.65 bitrate= 791.5kbits/s speed=0.0351x elapsed=0:01:15.60    \nframe=  164 fps=2.2 q=37.1 size=     256KiB time=00:00:02.70 bitrate= 776.9kbits/s speed=0.0355x elapsed=0:01:16.12    \nframe=  165 fps=2.2 q=41.7 size=     256KiB time=00:00:02.71 bitrate= 772.1kbits/s speed=0.0355x elapsed=0:01:16.62    \nframe=  165 fps=2.1 q=41.7 size=     256KiB time=00:00:02.71 bitrate= 772.1kbits/s speed=0.0352x elapsed=0:01:17.14    \nframe=  167 fps=2.2 q=43.0 size=     256KiB time=00:00:02.75 bitrate= 762.7kbits/s speed=0.0354x elapsed=0:01:17.67    \nframe=  167 fps=2.1 q=43.0 size=     256KiB time=00:00:02.75 bitrate= 762.7kbits/s speed=0.0352x elapsed=0:01:18.19    \nframe=  168 fps=2.1 q=37.0 size=     256KiB time=00:00:02.76 bitrate= 758.1kbits/s speed=0.0351x elapsed=0:01:18.71    \nframe=  169 fps=2.1 q=42.8 size=     256KiB time=00:00:02.78 bitrate= 753.6kbits/s speed=0.0351x elapsed=0:01:19.22    \nframe=  169 fps=2.1 q=42.8 size=     256KiB time=00:00:02.78 bitrate= 753.6kbits/s speed=0.0349x elapsed=0:01:19.74    \nframe=  170 fps=2.1 q=37.3 size=     256KiB time=00:00:02.80 bitrate= 749.1kbits/s speed=0.0349x elapsed=0:01:20.26    \nframe=  171 fps=2.1 q=41.6 size=     256KiB time=00:00:02.81 bitrate= 744.7kbits/s speed=0.0349x elapsed=0:01:20.77    \nframe=  171 fps=2.1 q=41.6 size=     256KiB time=00:00:02.81 bitrate= 744.7kbits/s speed=0.0346x elapsed=0:01:21.29    \nframe=  172 fps=2.1 q=43.0 size=     256KiB time=00:00:02.83 bitrate= 740.3kbits/s speed=0.0346x elapsed=0:01:21.81    \nframe=  173 fps=2.1 q=43.0 size=     256KiB time=00:00:02.85 bitrate= 736.0kbits/s speed=0.0346x elapsed=0:01:22.31    \nframe=  175 fps=2.1 q=41.9 size=     256KiB time=00:00:02.88 bitrate= 727.5kbits/s speed=0.0348x elapsed=0:01:22.84    \nframe=  176 fps=2.1 q=43.0 size=     256KiB time=00:00:02.90 bitrate= 723.3kbits/s speed=0.0348x elapsed=0:01:23.36    \nframe=  177 fps=2.1 q=42.9 size=     256KiB time=00:00:02.91 bitrate= 719.1kbits/s speed=0.0348x elapsed=0:01:23.87    \nframe=  178 fps=2.1 q=37.7 size=     256KiB time=00:00:02.93 bitrate= 715.1kbits/s speed=0.0348x elapsed=0:01:24.38    \nframe=  179 fps=2.1 q=42.8 size=     256KiB time=00:00:02.95 bitrate= 711.0kbits/s speed=0.0347x elapsed=0:01:24.89    \nframe=  181 fps=2.1 q=39.2 size=     256KiB time=00:00:02.98 bitrate= 703.1kbits/s speed=0.0349x elapsed=0:01:25.41    \nframe=  181 fps=2.1 q=39.2 size=     256KiB time=00:00:02.98 bitrate= 703.1kbits/s speed=0.0347x elapsed=0:01:25.93    \nframe=  182 fps=2.1 q=43.0 size=     256KiB time=00:00:03.00 bitrate= 699.2kbits/s speed=0.0347x elapsed=0:01:26.44    \nframe=  183 fps=2.1 q=43.9 size=     256KiB time=00:00:03.01 bitrate= 695.3kbits/s speed=0.0347x elapsed=0:01:26.95    \nframe=  184 fps=2.1 q=37.7 size=     256KiB time=00:00:03.03 bitrate= 691.5kbits/s speed=0.0347x elapsed=0:01:27.48    \nframe=  185 fps=2.1 q=42.5 size=     256KiB time=00:00:03.05 bitrate= 687.7kbits/s speed=0.0347x elapsed=0:01:27.99    \nframe=  185 fps=2.1 q=42.5 size=     256KiB time=00:00:03.05 bitrate= 687.7kbits/s speed=0.0345x elapsed=0:01:28.51    \nframe=  187 fps=2.1 q=44.0 size=     256KiB time=00:00:03.08 bitrate= 680.3kbits/s speed=0.0346x elapsed=0:01:29.01    \nframe=  187 fps=2.1 q=44.0 size=     256KiB time=00:00:03.08 bitrate= 680.3kbits/s speed=0.0344x elapsed=0:01:29.54    \nframe=  189 fps=2.1 q=42.7 size=     256KiB time=00:00:03.11 bitrate= 673.0kbits/s speed=0.0346x elapsed=0:01:30.06    \nframe=  189 fps=2.1 q=42.7 size=     256KiB time=00:00:03.11 bitrate= 673.0kbits/s speed=0.0344x elapsed=0:01:30.58    \nframe=  190 fps=2.1 q=44.0 size=     256KiB time=00:00:03.13 bitrate= 669.4kbits/s speed=0.0344x elapsed=0:01:31.10    \nframe=  191 fps=2.1 q=44.0 size=     256KiB time=00:00:03.15 bitrate= 665.9kbits/s speed=0.0344x elapsed=0:01:31.61    \nframe=  192 fps=2.1 q=38.4 size=     256KiB time=00:00:03.16 bitrate= 662.4kbits/s speed=0.0344x elapsed=0:01:32.13    \nframe=  193 fps=2.1 q=41.5 size=     256KiB time=00:00:03.18 bitrate= 658.9kbits/s speed=0.0344x elapsed=0:01:32.65    \nframe=  193 fps=2.1 q=41.5 size=     256KiB time=00:00:03.18 bitrate= 658.9kbits/s speed=0.0342x elapsed=0:01:33.17    \nframe=  194 fps=2.1 q=43.9 size=     256KiB time=00:00:03.20 bitrate= 655.5kbits/s speed=0.0342x elapsed=0:01:33.68    \nframe=  195 fps=2.1 q=44.0 size=     256KiB time=00:00:03.21 bitrate= 652.1kbits/s speed=0.0341x elapsed=0:01:34.21    \nframe=  197 fps=2.1 q=43.6 size=     256KiB time=00:00:03.25 bitrate= 645.4kbits/s speed=0.0343x elapsed=0:01:34.73    \nframe=  197 fps=2.1 q=43.6 size=     256KiB time=00:00:03.25 bitrate= 645.4kbits/s speed=0.0341x elapsed=0:01:35.26    \nframe=  198 fps=2.1 q=45.0 size=     256KiB time=00:00:03.26 bitrate= 642.1kbits/s speed=0.0341x elapsed=0:01:35.79    \nframe=  199 fps=2.1 q=45.0 size=     256KiB time=00:00:03.28 bitrate= 638.8kbits/s speed=0.0341x elapsed=0:01:36.30    \nframe=  200 fps=2.1 q=37.4 size=     256KiB time=00:00:03.30 bitrate= 635.6kbits/s speed=0.0341x elapsed=0:01:36.82    \nframe=  200 fps=2.1 q=37.4 size=     256KiB time=00:00:03.30 bitrate= 635.6kbits/s speed=0.0339x elapsed=0:01:37.33    \nframe=  201 fps=2.1 q=44.1 size=     256KiB time=00:00:03.31 bitrate= 632.4kbits/s speed=0.0339x elapsed=0:01:37.85    \nframe=  201 fps=2.0 q=44.1 size=     256KiB time=00:00:03.31 bitrate= 632.4kbits/s speed=0.0337x elapsed=0:01:38.37    \nframe=  204 fps=2.1 q=45.0 size=     256KiB time=00:00:03.36 bitrate= 623.0kbits/s speed=0.034x elapsed=0:01:38.88    \nframe=  205 fps=2.1 q=46.0 size=     256KiB time=00:00:03.38 bitrate= 620.0kbits/s speed=0.034x elapsed=0:01:39.40    \nframe=  207 fps=2.1 q=46.0 size=     256KiB time=00:00:03.41 bitrate= 613.9kbits/s speed=0.0342x elapsed=0:01:39.92    \nframe=  207 fps=2.1 q=46.0 size=     256KiB time=00:00:03.41 bitrate= 613.9kbits/s speed=0.034x elapsed=0:01:40.42    \nframe=  208 fps=2.1 q=38.4 size=     256KiB time=00:00:03.43 bitrate= 610.9kbits/s speed=0.034x elapsed=0:01:40.94    \nframe=  209 fps=2.1 q=43.9 size=     256KiB time=00:00:03.45 bitrate= 608.0kbits/s speed=0.034x elapsed=0:01:41.47    \nframe=  210 fps=2.1 q=45.0 size=     256KiB time=00:00:03.46 bitrate= 605.0kbits/s speed=0.034x elapsed=0:01:41.97    \nframe=  211 fps=2.1 q=45.0 size=     256KiB time=00:00:03.48 bitrate= 602.2kbits/s speed=0.034x elapsed=0:01:42.49    \nframe=  212 fps=2.1 q=38.1 size=     256KiB time=00:00:03.50 bitrate= 599.3kbits/s speed=0.034x elapsed=0:01:43.00    \nframe=  213 fps=2.1 q=44.0 size=     256KiB time=00:00:03.51 bitrate= 596.4kbits/s speed=0.034x elapsed=0:01:43.52    \nframe=  213 fps=2.0 q=44.0 size=     256KiB time=00:00:03.51 bitrate= 596.4kbits/s speed=0.0338x elapsed=0:01:44.04    \nframe=  215 fps=2.1 q=45.0 size=     256KiB time=00:00:03.55 bitrate= 590.8kbits/s speed=0.0339x elapsed=0:01:44.56    \nframe=  216 fps=2.1 q=37.4 size=     256KiB time=00:00:03.56 bitrate= 588.1kbits/s speed=0.0339x elapsed=0:01:45.09    \nframe=  217 fps=2.1 q=43.2 size=     256KiB time=00:00:03.58 bitrate= 585.4kbits/s speed=0.0339x elapsed=0:01:45.60    \nframe=  219 fps=2.1 q=45.0 size=     256KiB time=00:00:03.61 bitrate= 580.0kbits/s speed=0.0341x elapsed=0:01:46.11    \nframe=  221 fps=2.1 q=43.3 size=     256KiB time=00:00:03.65 bitrate= 574.7kbits/s speed=0.0342x elapsed=0:01:46.64    \nframe=  222 fps=2.1 q=44.9 size=     256KiB time=00:00:03.66 bitrate= 572.0kbits/s speed=0.0342x elapsed=0:01:47.14    \nframe=  222 fps=2.1 q=44.9 size=     256KiB time=00:00:03.66 bitrate= 572.0kbits/s speed=0.0341x elapsed=0:01:47.65    \nframe=  223 fps=2.1 q=44.9 size=     256KiB time=00:00:03.68 bitrate= 569.5kbits/s speed=0.034x elapsed=0:01:48.20    \nframe=  224 fps=2.1 q=37.2 size=     256KiB time=00:00:03.70 bitrate= 566.9kbits/s speed=0.034x elapsed=0:01:48.81    \nframe=  226 fps=2.1 q=45.0 size=     256KiB time=00:00:03.73 bitrate= 561.8kbits/s speed=0.0341x elapsed=0:01:49.34    \nframe=  226 fps=2.1 q=45.0 size=     256KiB time=00:00:03.73 bitrate= 561.8kbits/s speed=0.034x elapsed=0:01:49.89    \nframe=  226 fps=2.0 q=45.0 size=     256KiB time=00:00:03.73 bitrate= 561.8kbits/s speed=0.0338x elapsed=0:01:50.43    \nframe=  227 fps=2.0 q=38.4 size=     256KiB time=00:00:03.75 bitrate= 559.3kbits/s speed=0.0338x elapsed=0:01:50.98    \nframe=  227 fps=2.0 q=38.4 size=     256KiB time=00:00:03.75 bitrate= 559.3kbits/s speed=0.0336x elapsed=0:01:51.50    \nframe=  228 fps=2.0 q=45.8 size=     256KiB time=00:00:03.76 bitrate= 556.9kbits/s speed=0.0336x elapsed=0:01:52.06    \nframe=  229 fps=2.0 q=46.0 size=     256KiB time=00:00:03.78 bitrate= 554.4kbits/s speed=0.0336x elapsed=0:01:52.59    \nframe=  230 fps=2.0 q=46.0 size=     256KiB time=00:00:03.80 bitrate= 552.0kbits/s speed=0.0336x elapsed=0:01:53.11    \nframe=  230 fps=2.0 q=46.0 size=     256KiB time=00:00:03.80 bitrate= 552.0kbits/s speed=0.0334x elapsed=0:01:53.62    \nframe=  230 fps=2.0 q=46.0 size=     256KiB time=00:00:03.80 bitrate= 552.0kbits/s speed=0.0333x elapsed=0:01:54.15    \nframe=  231 fps=2.0 q=46.0 size=     256KiB time=00:00:03.81 bitrate= 549.6kbits/s speed=0.0333x elapsed=0:01:54.70    \nframe=  231 fps=2.0 q=46.0 size=     256KiB time=00:00:03.81 bitrate= 549.6kbits/s speed=0.0331x elapsed=0:01:55.22    \nframe=  231 fps=2.0 q=46.0 size=     256KiB time=00:00:03.81 bitrate= 549.6kbits/s speed=0.033x elapsed=0:01:55.74    \nframe=  232 fps=2.0 q=38.0 size=     256KiB time=00:00:03.83 bitrate= 547.2kbits/s speed=0.033x elapsed=0:01:56.27    \nframe=  232 fps=2.0 q=38.0 size=     256KiB time=00:00:03.83 bitrate= 547.2kbits/s speed=0.0328x elapsed=0:01:56.82    \nframe=  233 fps=2.0 q=45.0 size=     256KiB time=00:00:03.85 bitrate= 544.8kbits/s speed=0.0328x elapsed=0:01:57.33    \nframe=  234 fps=2.0 q=46.0 size=     256KiB time=00:00:03.86 bitrate= 542.5kbits/s speed=0.0328x elapsed=0:01:57.88    \nframe=  234 fps=2.0 q=46.0 size=     256KiB time=00:00:03.86 bitrate= 542.5kbits/s speed=0.0327x elapsed=0:01:58.41    \nframe=  234 fps=2.0 q=46.0 size=     256KiB time=00:00:03.86 bitrate= 542.5kbits/s speed=0.0325x elapsed=0:01:58.94    \nframe=  235 fps=2.0 q=37.7 size=     256KiB time=00:00:03.88 bitrate= 540.1kbits/s speed=0.0325x elapsed=0:01:59.46    \nframe=  235 fps=2.0 q=37.7 size=     256KiB time=00:00:03.88 bitrate= 540.1kbits/s speed=0.0324x elapsed=0:02:00.00    \nframe=  235 fps=1.9 q=37.7 size=     256KiB time=00:00:03.88 bitrate= 540.1kbits/s speed=0.0322x elapsed=0:02:00.54    \nframe=  236 fps=1.9 q=43.9 size=     256KiB time=00:00:03.90 bitrate= 537.8kbits/s speed=0.0322x elapsed=0:02:01.07    \nframe=  237 fps=1.9 q=44.9 size=     256KiB time=00:00:03.91 bitrate= 535.5kbits/s speed=0.0322x elapsed=0:02:01.60    \nframe=  238 fps=1.9 q=37.9 size=     256KiB time=00:00:03.93 bitrate= 533.3kbits/s speed=0.0322x elapsed=0:02:02.15    \nframe=  238 fps=1.9 q=37.9 size=     256KiB time=00:00:03.93 bitrate= 533.3kbits/s speed=0.0321x elapsed=0:02:02.69    \nframe=  239 fps=1.9 q=44.9 size=     256KiB time=00:00:03.95 bitrate= 531.0kbits/s speed=0.0321x elapsed=0:02:03.22    \nframe=  239 fps=1.9 q=44.9 size=     256KiB time=00:00:03.95 bitrate= 531.0kbits/s speed=0.0319x elapsed=0:02:03.74    \nframe=  240 fps=1.9 q=44.6 size=     256KiB time=00:00:03.96 bitrate= 528.8kbits/s speed=0.0319x elapsed=0:02:04.27    \nframe=  240 fps=1.9 q=44.6 size=     256KiB time=00:00:03.96 bitrate= 528.8kbits/s speed=0.0318x elapsed=0:02:04.80    \nframe=  241 fps=1.9 q=38.0 size=     256KiB time=00:00:03.98 bitrate= 526.6kbits/s speed=0.0318x elapsed=0:02:05.35    \nframe=  241 fps=1.9 q=38.0 size=     256KiB time=00:00:03.98 bitrate= 526.6kbits/s speed=0.0316x elapsed=0:02:05.88    \nframe=  241 fps=1.9 q=38.0 size=     256KiB time=00:00:03.98 bitrate= 526.6kbits/s speed=0.0315x elapsed=0:02:06.42    \nframe=  242 fps=1.9 q=44.6 size=     256KiB time=00:00:04.00 bitrate= 524.4kbits/s speed=0.0315x elapsed=0:02:06.96    \nframe=  243 fps=1.9 q=45.8 size=     256KiB time=00:00:04.01 bitrate= 522.2kbits/s speed=0.0315x elapsed=0:02:07.50    \nframe=  243 fps=1.9 q=45.8 size=     256KiB time=00:00:04.01 bitrate= 522.2kbits/s speed=0.0314x elapsed=0:02:08.00    \nframe=  245 fps=1.9 q=44.9 size=     256KiB time=00:00:04.05 bitrate= 517.9kbits/s speed=0.0315x elapsed=0:02:08.54    \nframe=  245 fps=1.9 q=44.9 size=     256KiB time=00:00:04.05 bitrate= 517.9kbits/s speed=0.0314x elapsed=0:02:09.06    \nframe=  247 fps=1.9 q=46.0 size=     256KiB time=00:00:04.08 bitrate= 513.7kbits/s speed=0.0315x elapsed=0:02:09.59    \nframe=  247 fps=1.9 q=46.0 size=     256KiB time=00:00:04.08 bitrate= 513.7kbits/s speed=0.0314x elapsed=0:02:10.12    \nframe=  247 fps=1.9 q=46.0 size=     256KiB time=00:00:04.08 bitrate= 513.7kbits/s speed=0.0313x elapsed=0:02:10.63    \nframe=  247 fps=1.9 q=46.0 size=     256KiB time=00:00:04.08 bitrate= 513.7kbits/s speed=0.0311x elapsed=0:02:11.16    \nframe=  248 fps=1.9 q=38.3 size=     256KiB time=00:00:04.10 bitrate= 511.6kbits/s speed=0.0311x elapsed=0:02:11.68    \nframe=  249 fps=1.9 q=46.0 size=     512KiB time=00:00:04.11 bitrate=1018.9kbits/s speed=0.0311x elapsed=0:02:12.22    \nframe=  249 fps=1.9 q=46.0 size=     512KiB time=00:00:04.11 bitrate=1018.9kbits/s speed=0.031x elapsed=0:02:12.79    \nframe=  250 fps=1.9 q=46.0 size=     512KiB time=00:00:04.13 bitrate=1014.8kbits/s speed=0.031x elapsed=0:02:13.38    \nframe=  250 fps=1.9 q=46.0 size=     512KiB time=00:00:04.13 bitrate=1014.8kbits/s speed=0.0309x elapsed=0:02:13.97    \nframe=  250 fps=1.9 q=46.0 size=     512KiB time=00:00:04.13 bitrate=1014.8kbits/s speed=0.0307x elapsed=0:02:14.50    \nframe=  250 fps=1.9 q=46.0 size=     512KiB time=00:00:04.13 bitrate=1014.8kbits/s speed=0.0306x elapsed=0:02:15.02    \nframe=  251 fps=1.9 q=37.0 size=     512KiB time=00:00:04.13 bitrate=1014.8kbits/s speed=0.0305x elapsed=0:02:15.58    \nframe=  251 fps=1.8 q=37.0 size=     512KiB time=00:00:04.15 bitrate=1010.8kbits/s speed=0.0305x elapsed=0:02:16.14    \nframe=  252 fps=1.8 q=39.4 size=     512KiB time=00:00:04.16 bitrate=1006.7kbits/s speed=0.0305x elapsed=0:02:16.69    \nframe=  253 fps=1.8 q=46.0 size=     512KiB time=00:00:04.18 bitrate=1002.7kbits/s speed=0.0305x elapsed=0:02:17.25    \nframe=  253 fps=1.8 q=46.0 size=     512KiB time=00:00:04.18 bitrate=1002.7kbits/s speed=0.0304x elapsed=0:02:17.77    \nframe=  253 fps=1.8 q=46.0 size=     512KiB time=00:00:04.18 bitrate=1002.7kbits/s speed=0.0302x elapsed=0:02:18.34    \nframe=  253 fps=1.8 q=46.0 size=     512KiB time=00:00:04.18 bitrate=1002.7kbits/s speed=0.0301x elapsed=0:02:18.88    \nframe=  254 fps=1.8 q=47.0 size=     512KiB time=00:00:04.20 bitrate= 998.7kbits/s speed=0.0301x elapsed=0:02:19.43    \nframe=  254 fps=1.8 q=47.0 size=     512KiB time=00:00:04.20 bitrate= 998.7kbits/s speed=0.03x elapsed=0:02:19.96    \nframe=  256 fps=1.8 q=43.2 size=     512KiB time=00:00:04.23 bitrate= 990.9kbits/s speed=0.0301x elapsed=0:02:20.49    \nframe=  256 fps=1.8 q=43.2 size=     512KiB time=00:00:04.23 bitrate= 990.9kbits/s speed=0.03x elapsed=0:02:21.07    \nframe=  256 fps=1.8 q=43.2 size=     512KiB time=00:00:04.23 bitrate= 990.9kbits/s speed=0.0299x elapsed=0:02:21.64    \nframe=  256 fps=1.8 q=43.2 size=     512KiB time=00:00:04.23 bitrate= 990.9kbits/s speed=0.0298x elapsed=0:02:22.17    \nframe=  257 fps=1.8 q=45.9 size=     512KiB time=00:00:04.25 bitrate= 987.0kbits/s speed=0.0298x elapsed=0:02:22.82    \nframe=  257 fps=1.8 q=45.9 size=     512KiB time=00:00:04.25 bitrate= 987.0kbits/s speed=0.0296x elapsed=0:02:23.34    \nframe=  257 fps=1.8 q=45.9 size=     512KiB time=00:00:04.25 bitrate= 987.0kbits/s speed=0.0295x elapsed=0:02:23.89    \nframe=  257 fps=1.8 q=45.9 size=     512KiB time=00:00:04.25 bitrate= 987.0kbits/s speed=0.0294x elapsed=0:02:24.45    \nframe=  257 fps=1.8 q=45.9 size=     512KiB time=00:00:04.25 bitrate= 987.0kbits/s speed=0.0293x elapsed=0:02:24.96    \nframe=  257 fps=1.8 q=45.9 size=     512KiB time=00:00:04.25 bitrate= 987.0kbits/s speed=0.0292x elapsed=0:02:25.48    \nframe=  258 fps=1.8 q=38.2 size=     512KiB time=00:00:04.26 bitrate= 983.1kbits/s speed=0.0292x elapsed=0:02:26.01    \nframe=  258 fps=1.8 q=38.2 size=     512KiB time=00:00:04.26 bitrate= 983.1kbits/s speed=0.0291x elapsed=0:02:26.56    \nframe=  258 fps=1.8 q=38.2 size=     512KiB time=00:00:04.26 bitrate= 983.1kbits/s speed=0.029x elapsed=0:02:27.07    \nframe=  258 fps=1.7 q=38.2 size=     512KiB time=00:00:04.26 bitrate= 983.1kbits/s speed=0.0289x elapsed=0:02:27.64    \nframe=  258 fps=1.7 q=38.2 size=     512KiB time=00:00:04.26 bitrate= 983.1kbits/s speed=0.0288x elapsed=0:02:28.19    \nframe=  259 fps=1.7 q=45.0 size=     512KiB time=00:00:04.28 bitrate= 979.3kbits/s speed=0.0288x elapsed=0:02:28.72    \nframe=  259 fps=1.7 q=45.0 size=     512KiB time=00:00:04.28 bitrate= 979.3kbits/s speed=0.0287x elapsed=0:02:29.31    \nframe=  259 fps=1.7 q=45.0 size=     512KiB time=00:00:04.28 bitrate= 979.3kbits/s speed=0.0286x elapsed=0:02:29.96    \nframe=  259 fps=1.7 q=45.0 size=     512KiB time=00:00:04.28 bitrate= 979.3kbits/s speed=0.0285x elapsed=0:02:30.48    \nframe=  260 fps=1.7 q=41.0 size=     512KiB time=00:00:04.30 bitrate= 975.5kbits/s speed=0.0285x elapsed=0:02:31.03    \nframe=  260 fps=1.7 q=41.0 size=     512KiB time=00:00:04.30 bitrate= 975.5kbits/s speed=0.0284x elapsed=0:02:31.56    \nframe=  260 fps=1.7 q=41.0 size=     512KiB time=00:00:04.30 bitrate= 975.5kbits/s speed=0.0283x elapsed=0:02:32.11    \nframe=  260 fps=1.7 q=41.0 size=     512KiB time=00:00:04.30 bitrate= 975.5kbits/s speed=0.0282x elapsed=0:02:32.64    \nframe=  262 fps=1.7 q=44.9 size=     512KiB time=00:00:04.33 bitrate= 968.0kbits/s speed=0.0283x elapsed=0:02:33.18    \nframe=  262 fps=1.7 q=44.9 size=     512KiB time=00:00:04.33 bitrate= 968.0kbits/s speed=0.0282x elapsed=0:02:33.71    \nframe=  262 fps=1.7 q=44.9 size=     512KiB time=00:00:04.33 bitrate= 968.0kbits/s speed=0.0281x elapsed=0:02:34.29    \nframe=  262 fps=1.7 q=44.9 size=     512KiB time=00:00:04.33 bitrate= 968.0kbits/s speed=0.028x elapsed=0:02:34.80    \nframe=  262 fps=1.7 q=44.9 size=     512KiB time=00:00:04.33 bitrate= 968.0kbits/s speed=0.0279x elapsed=0:02:35.32    \nframe=  262 fps=1.7 q=44.9 size=     512KiB time=00:00:04.33 bitrate= 968.0kbits/s speed=0.0278x elapsed=0:02:35.84    \nframe=  263 fps=1.7 q=50.9 size=     512KiB time=00:00:04.35 bitrate= 964.3kbits/s speed=0.0278x elapsed=0:02:36.37    \nframe=  264 fps=1.7 q=51.0 size=     512KiB time=00:00:04.36 bitrate= 960.6kbits/s speed=0.0278x elapsed=0:02:36.90    \nframe=  264 fps=1.7 q=51.0 size=     512KiB time=00:00:04.36 bitrate= 960.6kbits/s speed=0.0277x elapsed=0:02:37.44    \nframe=  264 fps=1.7 q=51.0 size=     512KiB time=00:00:04.36 bitrate= 960.6kbits/s speed=0.0276x elapsed=0:02:37.98    \nframe=  264 fps=1.7 q=51.0 size=     512KiB time=00:00:04.36 bitrate= 960.6kbits/s speed=0.0275x elapsed=0:02:38.51    \nframe=  265 fps=1.7 q=43.4 size=     512KiB time=00:00:04.38 bitrate= 957.0kbits/s speed=0.0276x elapsed=0:02:39.06    \nframe=  265 fps=1.7 q=43.4 size=     512KiB time=00:00:04.38 bitrate= 957.0kbits/s speed=0.0274x elapsed=0:02:39.68    \nframe=  265 fps=1.7 q=43.4 size=     512KiB time=00:00:04.38 bitrate= 957.0kbits/s speed=0.0274x elapsed=0:02:40.20    \nframe=  265 fps=1.6 q=43.4 size=     512KiB time=00:00:04.38 bitrate= 957.0kbits/s speed=0.0273x elapsed=0:02:40.74    \nframe=  267 fps=1.7 q=51.0 size=     512KiB time=00:00:04.41 bitrate= 949.7kbits/s speed=0.0274x elapsed=0:02:41.27    \nframe=  268 fps=1.7 q=51.0 size=     512KiB time=00:00:04.43 bitrate= 946.2kbits/s speed=0.0274x elapsed=0:02:41.79    \nframe=  269 fps=1.7 q=51.0 size=     512KiB time=00:00:04.45 bitrate= 942.6kbits/s speed=0.0274x elapsed=0:02:42.29    \nframe=  271 fps=1.7 q=51.0 size=     512KiB time=00:00:04.48 bitrate= 935.6kbits/s speed=0.0275x elapsed=0:02:42.81    \nframe=  271 fps=1.7 q=51.0 size=     512KiB time=00:00:04.48 bitrate= 935.6kbits/s speed=0.0274x elapsed=0:02:43.33    \nframe=  271 fps=1.7 q=51.0 size=     512KiB time=00:00:04.48 bitrate= 935.6kbits/s speed=0.0274x elapsed=0:02:43.85    \nframe=  272 fps=1.7 q=51.0 size=     512KiB time=00:00:04.50 bitrate= 932.1kbits/s speed=0.0274x elapsed=0:02:44.36    \nframe=  273 fps=1.7 q=51.0 size=     512KiB time=00:00:04.51 bitrate= 928.7kbits/s speed=0.0274x elapsed=0:02:44.88    \nframe=  273 fps=1.7 q=51.0 size=     512KiB time=00:00:04.51 bitrate= 928.7kbits/s speed=0.0273x elapsed=0:02:45.40    \nframe=  274 fps=1.7 q=43.6 size=     512KiB time=00:00:04.53 bitrate= 925.3kbits/s speed=0.0273x elapsed=0:02:45.91    \nframe=  276 fps=1.7 q=51.0 size=     512KiB time=00:00:04.56 bitrate= 918.5kbits/s speed=0.0274x elapsed=0:02:46.43    \nframe=  277 fps=1.7 q=51.0 size=     512KiB time=00:00:04.58 bitrate= 915.2kbits/s speed=0.0275x elapsed=0:02:46.95    \nframe=  277 fps=1.7 q=51.0 size=     512KiB time=00:00:04.58 bitrate= 915.2kbits/s speed=0.0274x elapsed=0:02:47.45    \nframe=  278 fps=1.7 q=51.0 size=     512KiB time=00:00:04.60 bitrate= 911.9kbits/s speed=0.0274x elapsed=0:02:47.98    \nframe=  279 fps=1.7 q=45.0 size=     512KiB time=00:00:04.61 bitrate= 908.6kbits/s speed=0.0274x elapsed=0:02:48.51    \nframe=  281 fps=1.7 q=51.0 size=     512KiB time=00:00:04.65 bitrate= 902.1kbits/s speed=0.0275x elapsed=0:02:49.02    \nframe=  283 fps=1.7 q=51.0 size=     512KiB time=00:00:04.68 bitrate= 895.7kbits/s speed=0.0276x elapsed=0:02:49.54    \nframe=  283 fps=1.7 q=51.0 size=     512KiB time=00:00:04.68 bitrate= 895.7kbits/s speed=0.0275x elapsed=0:02:50.05    \nframe=  285 fps=1.7 q=50.9 size=     512KiB time=00:00:04.71 bitrate= 889.3kbits/s speed=0.0277x elapsed=0:02:50.57    \nframe=  285 fps=1.7 q=50.9 size=     512KiB time=00:00:04.71 bitrate= 889.3kbits/s speed=0.0276x elapsed=0:02:51.09    \nframe=  286 fps=1.7 q=51.0 size=     512KiB time=00:00:04.73 bitrate= 886.2kbits/s speed=0.0276x elapsed=0:02:51.60    \nframe=  288 fps=1.7 q=41.2 size=     512KiB time=00:00:04.76 bitrate= 880.0kbits/s speed=0.0277x elapsed=0:02:52.12    \nframe=  289 fps=1.7 q=49.0 size=     512KiB time=00:00:04.78 bitrate= 876.9kbits/s speed=0.0277x elapsed=0:02:52.64    \nframe=  290 fps=1.7 q=50.0 size=     512KiB time=00:00:04.80 bitrate= 873.9kbits/s speed=0.0277x elapsed=0:02:53.16    \nframe=  292 fps=1.7 q=41.1 size=     512KiB time=00:00:04.83 bitrate= 867.9kbits/s speed=0.0278x elapsed=0:02:53.70    \nframe=  292 fps=1.7 q=41.1 size=     512KiB time=00:00:04.83 bitrate= 867.9kbits/s speed=0.0277x elapsed=0:02:54.20    \nframe=  293 fps=1.7 q=50.0 size=     512KiB time=00:00:04.85 bitrate= 864.9kbits/s speed=0.0278x elapsed=0:02:54.72    \nframe=  294 fps=1.7 q=49.0 size=     512KiB time=00:00:04.86 bitrate= 861.9kbits/s speed=0.0278x elapsed=0:02:55.24    \nframe=  296 fps=1.7 q=48.9 size=     512KiB time=00:00:04.90 bitrate= 856.1kbits/s speed=0.0279x elapsed=0:02:55.77    \nframe=  298 fps=1.7 q=44.4 size=     512KiB time=00:00:04.93 bitrate= 850.3kbits/s speed=0.028x elapsed=0:02:56.29    \n[mp4 @ 0000018cb5ddad40] Starting second pass: moving the moov atom to the beginning of the file\n[out#0/mp4 @ 0000018cb5ddac40] video:631KiB audio:0KiB subtitle:0KiB other streams:0KiB global headers:2KiB muxing overhead: 1.090066%\nframe=  300 fps=1.7 q=46.0 Lsize=     638KiB time=00:00:04.96 bitrate=1051.9kbits/s speed=0.0282x elapsed=0:02:56.40    \nx265 [info]: frame I:      2, Avg QP:41.03  kb/s: 6779.28 \nx265 [info]: frame P:     73, Avg QP:38.14  kb/s: 3427.98 \nx265 [info]: frame B:    225, Avg QP:43.83  kb/s: 203.16  \nx265 [info]: Weighted P-Frames: Y:0.0% UV:0.0%\n\nencoded 300 frames in 176.15s (1.70 fps), 1031.71 kb/s, Avg QP:42.43\n",
  "seconds": 176.6822328567505,
  "probe_out": {}
}